<?xml version="1.0" standalone="no"?>
<!DOCTYPE svg PUBLIC "-//W3C//DTD SVG 20010904//EN"
 "http://www.w3.org/TR/2001/REC-SVG-20010904/DTD/svg10.dtd">
<svg version="1.0" xmlns="http://www.w3.org/2000/svg"
 width="700.000000pt" height="700.000000pt" viewBox="0 0 700.000000 700.000000"
 preserveAspectRatio="xMidYMid meet">
<metadata>
Created by potrace 1.14, written by Peter Selinger 2001-2017
</metadata>
<g transform="translate(0.000000,700.000000) scale(0.100000,-0.100000)"
fill="#000000" stroke="none">
<path d="M1475 4466 c-230 -45 -413 -181 -511 -381 -63 -129 -78 -196 -78
-345 0 -147 15 -214 77 -340 33 -69 58 -102 132 -175 153 -153 293 -210 520
-209 150 0 244 21 355 80 63 33 210 147 210 162 0 4 -36 43 -79 86 l-79 79
-54 -47 c-250 -220 -616 -165 -763 114 -107 205 -77 451 75 614 66 70 129 108
215 131 153 39 307 3 452 -107 35 -26 66 -48 68 -48 7 0 155 173 155 181 0 15
-136 110 -205 143 -38 19 -99 41 -135 50 -91 23 -268 29 -355 12z"/>
<path d="M3925 4466 c-288 -58 -500 -248 -574 -516 -112 -399 110 -801 499
-909 281 -78 594 8 779 216 71 79 146 233 167 343 23 115 15 267 -19 372 -75
234 -259 410 -497 478 -97 27 -260 34 -355 16z m258 -231 c89 -23 157 -62 222
-129 278 -285 137 -783 -243 -857 -402 -77 -709 346 -527 728 98 207 328 315
548 258z"/>
<path d="M2320 3745 l0 -715 500 0 500 0 0 115 0 115 -375 0 -375 0 0 600 0
600 -125 0 -125 0 0 -715z"/>
<path d="M4768 4403 c21 -32 150 -228 285 -435 l247 -377 0 -280 0 -281 125 0
125 0 0 286 0 285 280 425 c154 233 280 427 280 429 0 3 -64 4 -141 3 l-141
-3 -195 -305 c-107 -168 -198 -309 -202 -313 -4 -4 -97 134 -207 308 l-199
315 -148 0 -148 0 39 -57z"/>
<path d="M4040 2640 c0 -73 3 -90 15 -90 10 0 15 10 15 30 0 27 3 30 30 30 17
0 39 9 50 20 45 45 9 100 -65 100 l-45 0 0 -90z m95 30 c0 -21 -5 -26 -32 -28
-31 -3 -33 -1 -33 28 0 29 2 31 33 28 27 -2 32 -7 32 -28z"/>
<path d="M4310 2715 c0 -8 7 -15 15 -15 8 0 15 7 15 15 0 8 -7 15 -15 15 -8 0
-15 -7 -15 -15z"/>
<path d="M4630 2715 c0 -8 7 -15 15 -15 8 0 15 7 15 15 0 8 -7 15 -15 15 -8 0
-15 -7 -15 -15z"/>
<path d="M5122 2714 c-41 -29 -23 -68 42 -89 17 -5 32 -17 34 -27 4 -22 -29
-31 -62 -17 -27 13 -43 8 -32 -10 13 -20 75 -24 101 -7 44 29 26 72 -40 93
-33 11 -45 37 -20 46 8 4 26 2 40 -3 30 -11 44 5 16 19 -28 15 -53 14 -79 -5z"/>
<path d="M5670 2715 c0 -8 7 -15 15 -15 8 0 15 7 15 15 0 8 -7 15 -15 15 -8 0
-15 -7 -15 -15z"/>
<path d="M4540 2706 c0 -8 -6 -17 -12 -20 -10 -5 -10 -7 0 -12 7 -3 12 -25 12
-53 0 -50 13 -71 42 -71 22 0 24 16 3 24 -10 4 -15 20 -15 51 0 33 4 45 15 45
8 0 15 5 15 10 0 6 -7 10 -15 10 -8 0 -15 7 -15 15 0 8 -7 15 -15 15 -8 0 -15
-6 -15 -14z"/>
<path d="M4200 2620 c0 -54 3 -70 14 -70 11 0 16 14 18 48 2 38 7 49 26 57 12
5 22 15 22 22 0 18 -15 16 -34 -3 -15 -14 -16 -14 -16 0 0 9 -7 16 -15 16 -12
0 -15 -14 -15 -70z"/>
<path d="M4310 2620 c0 -56 3 -70 15 -70 12 0 15 14 15 70 0 56 -3 70 -15 70
-12 0 -15 -14 -15 -70z"/>
<path d="M4370 2620 c0 -54 3 -70 14 -70 11 0 16 15 18 53 3 48 5 52 28 52 23
0 25 -4 28 -52 2 -38 7 -53 18 -53 21 0 20 103 -2 124 -18 19 -28 20 -55 6
-13 -7 -19 -7 -19 0 0 5 -7 10 -15 10 -12 0 -15 -14 -15 -70z"/>
<path d="M4630 2620 c0 -56 3 -70 15 -70 12 0 15 14 15 70 0 56 -3 70 -15 70
-12 0 -15 -14 -15 -70z"/>
<path d="M4700 2620 c0 -54 3 -70 14 -70 11 0 16 15 18 53 3 48 5 52 28 52 23
0 25 -4 28 -52 2 -38 7 -53 18 -53 21 0 20 103 -2 124 -18 19 -28 20 -55 6
-13 -7 -19 -7 -19 0 0 5 -7 10 -15 10 -12 0 -15 -14 -15 -70z"/>
<path d="M4870 2670 c-11 -11 -20 -31 -20 -45 0 -28 32 -65 56 -65 8 0 24 5
35 10 15 8 19 7 19 -4 0 -22 -34 -37 -69 -30 -36 7 -43 -10 -8 -20 78 -21 107
8 107 104 0 56 -3 70 -15 70 -8 0 -15 -5 -15 -10 0 -7 -6 -7 -19 0 -29 15 -49
12 -71 -10z m71 -10 c25 -14 25 -56 -1 -70 -45 -24 -86 44 -42 69 21 13 20 13
43 1z"/>
<path d="M5275 2665 c-14 -13 -25 -33 -25 -45 0 -25 42 -70 65 -70 24 0 56 20
50 31 -4 5 -13 5 -26 -1 -13 -8 -25 -7 -39 0 -34 18 -22 30 30 30 57 0 63 11
29 54 -26 33 -53 33 -84 1z m63 -7 c20 -20 14 -28 -23 -28 -19 0 -35 4 -35 8
0 12 22 32 35 32 6 0 16 -5 23 -12z"/>
<path d="M5410 2620 c0 -54 3 -70 14 -70 11 0 16 14 18 48 2 38 7 49 26 57 12
5 22 15 22 22 0 18 -15 16 -34 -3 -15 -14 -16 -14 -16 0 0 9 -7 16 -15 16 -12
0 -15 -14 -15 -70z"/>
<path d="M5528 2620 c17 -45 32 -70 40 -68 8 2 23 26 33 53 31 81 32 85 16 85
-8 0 -18 -11 -21 -25 -3 -13 -11 -37 -17 -52 l-11 -28 -18 50 c-9 28 -24 51
-32 53 -13 3 -12 -9 10 -68z"/>
<path d="M5670 2620 c0 -56 3 -70 15 -70 12 0 15 14 15 70 0 56 -3 70 -15 70
-12 0 -15 -14 -15 -70z"/>
<path d="M5755 2665 c-14 -13 -25 -33 -25 -45 0 -25 42 -70 65 -70 24 0 56 20
50 31 -4 6 -13 5 -25 -1 -24 -13 -26 -13 -44 6 -37 37 -1 98 43 74 13 -6 22
-6 26 -1 6 11 -26 31 -50 31 -9 0 -27 -11 -40 -25z"/>
<path d="M5895 2665 c-14 -13 -25 -33 -25 -45 0 -25 42 -70 65 -70 24 0 56 20
50 31 -4 5 -13 5 -26 -1 -13 -8 -25 -7 -39 0 -34 18 -22 30 30 30 57 0 63 11
29 54 -26 33 -53 33 -84 1z m63 -7 c20 -20 14 -28 -23 -28 -19 0 -35 4 -35 8
0 12 22 32 35 32 6 0 16 -5 23 -12z"/>
<path d="M6036 2674 c-26 -25 -17 -47 27 -63 15 -6 27 -15 27 -20 0 -17 -19
-22 -39 -11 -12 6 -22 6 -26 1 -6 -11 25 -31 49 -31 19 0 46 27 46 46 0 8 -16
22 -35 31 -40 19 -41 39 -1 35 28 -3 36 12 10 22 -25 10 -42 7 -58 -10z"/>
</g>
</svg>
