<?xml version="1.0" standalone="no"?>
<!DOCTYPE svg PUBLIC "-//W3C//DTD SVG 20010904//EN"
 "http://www.w3.org/TR/2001/REC-SVG-20010904/DTD/svg10.dtd">
<svg version="1.0" xmlns="http://www.w3.org/2000/svg"
 width="700.000000pt" height="700.000000pt" viewBox="0 0 700.000000 700.000000"
 preserveAspectRatio="xMidYMid meet">
<metadata>
Created by potrace 1.14, written by Peter Selinger 2001-2017
</metadata>
<g transform="translate(0.000000,700.000000) scale(0.100000,-0.100000)"
fill="#000000" stroke="none">
<path d="M1475 4190 c-196 -40 -339 -183 -381 -379 -68 -321 160 -612 479
-611 78 0 181 25 245 60 55 30 132 93 132 108 0 4 -22 31 -48 61 l-48 53 -44
-38 c-74 -61 -142 -88 -230 -88 -97 0 -162 28 -225 95 -73 78 -90 125 -90 249
0 87 4 113 22 152 31 67 104 142 166 169 106 46 253 22 347 -58 l43 -37 53 59
c30 33 54 63 54 67 0 10 -89 72 -139 97 -85 44 -234 61 -336 41z"/>
<path d="M4265 4188 c-253 -48 -431 -310 -387 -570 44 -260 264 -433 527 -415
274 19 466 222 468 492 3 332 -275 556 -608 493z m252 -179 c69 -33 119 -86
155 -165 19 -40 23 -66 23 -144 0 -88 -3 -101 -33 -162 -70 -143 -214 -212
-361 -174 -164 42 -259 179 -249 359 5 95 28 155 83 216 100 111 245 137 382
70z"/>
<path d="M2130 3700 l0 -480 360 0 360 0 0 75 0 75 -275 0 -275 0 0 130 0 130
240 0 240 0 0 75 0 75 -240 0 -240 0 0 125 0 125 270 0 270 0 0 75 0 75 -355
0 -355 0 0 -480z"/>
<path d="M3060 3700 l0 -480 335 0 335 0 0 75 0 75 -250 0 -250 0 0 405 0 405
-85 0 -85 0 0 -480z"/>
<path d="M5023 4128 c19 -29 104 -160 191 -291 l156 -237 0 -190 0 -190 85 0
85 0 0 193 0 192 190 285 189 285 -86 3 c-48 2 -92 1 -98 -2 -6 -2 -69 -95
-140 -205 -70 -111 -132 -204 -136 -206 -4 -3 -67 90 -140 205 l-132 210 -99
0 -99 0 34 -52z"/>
<path d="M2800 2891 c0 -34 4 -61 10 -61 6 0 10 9 10 19 0 12 8 21 21 23 56 8
48 70 -10 76 l-31 3 0 -60z m60 19 c0 -13 -7 -20 -20 -20 -13 0 -20 7 -20 20
0 13 7 20 20 20 13 0 20 -7 20 -20z"/>
<path d="M2970 2940 c0 -5 5 -10 10 -10 6 0 10 5 10 10 0 6 -4 10 -10 10 -5 0
-10 -4 -10 -10z"/>
<path d="M3190 2940 c0 -5 5 -10 10 -10 6 0 10 5 10 10 0 6 -4 10 -10 10 -5 0
-10 -4 -10 -10z"/>
<path d="M3512 2938 c-21 -21 -13 -39 23 -54 42 -17 37 -39 -6 -30 -36 7 -38
-11 -2 -20 30 -8 56 5 61 30 2 11 -8 21 -32 31 -44 19 -48 39 -6 33 32 -5 41
6 14 16 -24 9 -39 7 -52 -6z"/>
<path d="M3880 2940 c0 -5 5 -10 10 -10 6 0 10 5 10 10 0 6 -4 10 -10 10 -5 0
-10 -4 -10 -10z"/>
<path d="M3127 2927 c-10 -26 8 -92 26 -95 9 -2 17 1 17 7 0 6 -4 11 -10 11
-14 0 -12 48 2 52 9 3 8 9 -4 21 -20 20 -24 21 -31 4z"/>
<path d="M2910 2874 c0 -24 5 -44 10 -44 6 0 10 14 10 30 0 18 6 33 15 36 23
9 18 19 -10 20 -23 2 -25 -1 -25 -42z"/>
<path d="M2970 2875 c0 -25 5 -45 10 -45 6 0 10 20 10 45 0 25 -4 45 -10 45
-5 0 -10 -20 -10 -45z"/>
<path d="M3020 2874 c0 -51 17 -60 22 -11 2 20 8 32 18 32 10 0 16 -12 18 -32
4 -44 22 -42 22 1 0 39 -12 50 -52 52 -27 2 -28 -1 -28 -42z"/>
<path d="M3190 2875 c0 -25 5 -45 10 -45 6 0 10 20 10 45 0 25 -4 45 -10 45
-5 0 -10 -20 -10 -45z"/>
<path d="M3240 2874 c0 -51 17 -60 22 -11 2 20 8 32 18 32 10 0 16 -12 18 -32
4 -44 22 -42 22 1 0 39 -12 50 -52 52 -27 2 -28 -1 -28 -42z"/>
<path d="M3351 2907 c-28 -28 1 -74 40 -62 16 5 20 3 17 -6 -3 -8 -17 -14 -32
-14 -30 1 -30 -18 1 -23 32 -5 53 24 53 72 0 41 -1 42 -34 43 -19 1 -39 -4
-45 -10z m54 -27 c0 -8 -10 -16 -22 -18 -18 -3 -23 2 -23 18 0 16 5 21 23 18
12 -2 22 -10 22 -18z"/>
<path d="M3628 2909 c-27 -15 -23 -57 7 -71 19 -9 28 -9 37 0 9 9 6 12 -15 12
-15 0 -27 5 -27 10 0 6 14 10 30 10 31 0 39 17 18 38 -14 14 -27 15 -50 1z
m42 -19 c0 -5 -9 -10 -20 -10 -11 0 -20 5 -20 10 0 6 9 10 20 10 11 0 20 -4
20 -10z"/>
<path d="M3710 2874 c0 -24 5 -44 10 -44 6 0 10 11 10 24 0 13 7 29 15 36 21
18 19 25 -10 26 -23 2 -25 -1 -25 -42z"/>
<path d="M3789 2878 c9 -23 22 -43 27 -45 5 -2 17 17 26 42 19 51 8 62 -13 13
l-13 -32 -13 32 c-7 18 -17 32 -23 32 -5 0 -1 -19 9 -42z"/>
<path d="M3880 2875 c0 -25 5 -45 10 -45 6 0 10 20 10 45 0 25 -4 45 -10 45
-5 0 -10 -20 -10 -45z"/>
<path d="M3936 2904 c-9 -8 -16 -22 -16 -29 0 -15 27 -45 40 -45 5 0 17 3 27
7 15 6 13 8 -12 13 -21 4 -30 11 -30 25 0 14 9 21 30 25 25 5 27 7 12 13 -27
10 -34 9 -51 -9z"/>
<path d="M4038 2909 c-27 -15 -23 -57 7 -71 19 -9 28 -9 37 0 9 9 6 12 -15 12
-15 0 -27 5 -27 10 0 6 14 10 30 10 31 0 39 17 18 38 -14 14 -27 15 -50 1z
m42 -19 c0 -5 -9 -10 -20 -10 -11 0 -20 5 -20 10 0 6 9 10 20 10 11 0 20 -4
20 -10z"/>
<path d="M4133 2913 c-22 -8 -14 -33 15 -45 l27 -11 -30 -7 c-29 -6 -29 -6 -7
-14 14 -5 28 -3 37 4 22 18 18 29 -12 42 -27 11 -27 12 -5 16 12 2 20 8 17 13
-7 10 -22 11 -42 2z"/>
</g>
</svg>
